<?xml version="1.0" encoding="utf-8"?>
<!-- Generator: Adobe Illustrator 16.0.0, SVG Export Plug-In . SVG Version: 6.00 Build 0)  -->
<!DOCTYPE svg PUBLIC "-//W3C//DTD SVG 1.1//EN" "http://www.w3.org/Graphics/SVG/1.1/DTD/svg11.dtd">
<svg version="1.1" id="图层_1" xmlns="http://www.w3.org/2000/svg" xmlns:xlink="http://www.w3.org/1999/xlink" x="0px" y="0px"
	 width="154px" height="154px" viewBox="0 0 154 154" enable-background="new 0 0 154 154" xml:space="preserve">
<circle fill="#FFFFFF" cx="77" cy="76.75" r="77"/>
<path fill="#0696FA" d="M151,77c0,40.865-33.133,74-74.004,74C36.129,151,3,117.865,3,77S36.129,3,76.996,3
	C117.867,3,151,36.135,151,77z"/>
<g>
	<g>
		<path fill="#FFFFFF" d="M38.026,59.468c0.827,0.645,1.233,1.432,1.233,2.362v23.115c0,0.93,0.413,1.713,1.232,2.357
			c0.823,0.641,1.833,0.959,3.022,0.959c1.193,0,2.195-0.318,3.018-0.959c0.823-0.645,1.237-1.428,1.237-2.357V61.83
			c0-0.93,0.414-1.717,1.233-2.362c0.823-0.64,1.829-0.962,3.022-0.962s2.195,0.322,3.022,0.962
			c0.823,0.645,1.233,1.432,1.233,2.362v23.115c0,0.93,0.414,1.713,1.236,2.357c0.819,0.641,1.826,0.959,3.015,0.959
			c1.193,0,2.199-0.318,3.022-0.959c0.823-0.645,1.237-1.428,1.237-2.357V65.15c0-1.376-0.342-2.668-1.022-3.885
			c-0.684-1.221-1.586-2.271-2.724-3.157c-1.137-0.883-2.481-1.595-4.044-2.124c-1.559-0.533-3.217-0.799-4.975-0.799
			c-1.646,0-3.189,0.231-4.641,0.7c-1.439,0.461-2.736,1.07-3.869,1.826c-1.134-0.756-3.798-1.79-3.798-1.79
			c-1.447-0.461-2.986-0.692-4.632-0.692c-1.758,0-3.42,0.263-4.983,0.795c-1.555,0.529-2.903,1.241-4.041,2.123
			c-1.129,0.891-2.04,1.941-2.724,3.157c-0.676,1.217-1.014,2.513-1.014,3.885v19.794c0,0.931,0.41,1.718,1.225,2.358
			c0.828,0.64,1.833,0.962,3.026,0.962c1.189,0,2.199-0.322,3.022-0.962c0.819-0.641,1.225-1.428,1.225-2.358V61.866
			c0-0.931,0.421-1.714,1.241-2.354s1.829-0.966,3.022-0.966c1.188,0,2.195,0.326,3.018,0.966"/>
	</g>
</g>
<path fill="#FFFFFF" d="M109.453,84.945c1.192,0,2.215-0.322,3.062-0.967c0.854-0.641,1.28-1.428,1.28-2.354V58.378
	c0-0.934,0.41-1.717,1.229-2.362c0.823-0.64,1.829-0.962,3.026-0.962c1.192,0,2.198,0.323,3.018,0.962
	c0.823,0.645,1.237,1.428,1.237,2.362v0.263v36.332c0,1.372-0.33,2.668-0.979,3.885c-0.656,1.217-1.563,2.268-2.725,3.158
	c-1.164,0.879-2.513,1.594-4.044,2.119c-1.535,0.533-3.173,0.803-4.935,0.803c-1.754,0-3.42-0.27-4.979-0.803
	c-1.56-0.525-2.919-1.24-4.08-2.119c-1.165-0.891-2.088-1.941-2.764-3.158c-0.685-1.217-1.026-2.513-1.026-3.885
	c0-0.93,0.413-1.717,1.237-2.357c0.818-0.645,1.833-0.963,3.018-0.963c1.193,0,2.203,0.318,3.019,0.963
	c0.827,0.641,1.236,1.428,1.236,2.357v3.32c0,0.931,0.41,1.719,1.241,2.358c0.819,0.641,1.825,0.962,3.018,0.962
	c1.189,0,2.195-0.321,3.019-0.962c0.819-0.64,1.232-1.428,1.232-2.358V87.668c-1.363,0.395-2.808,0.594-4.342,0.594
	c-1.758,0-3.4-0.264-4.931-0.796c-1.536-0.532-2.88-1.236-4.045-2.128c-1.165-0.883-2.067-1.936-2.724-3.152
	c-0.652-1.217-0.979-2.514-0.979-3.881V58.378c0-0.934,0.413-1.717,1.237-2.362c0.818-0.64,1.833-0.962,3.018-0.962
	c1.193,0,2.203,0.323,3.019,0.962c0.827,0.645,1.098,1.428,1.098,2.362v23.247h0.056c0,0.926,0.405,1.713,1.232,2.354
	C107.258,84.623,108.268,84.945,109.453,84.945z"/>
<path fill="#FFFFFF" d="M92.521,61.099c-0.676-1.193-1.603-2.235-2.764-3.122c-1.156-0.887-2.51-1.59-4.044-2.127
	c-1.527-0.529-3.174-0.795-4.931-0.795c-0.971,0-1.913,0.088-2.832,0.255c-4.414-0.907-7.885-3.885-8.919-7.646
	c0.759-0.179,1.432-0.537,2.008-1.118c0.823-0.819,1.232-1.825,1.232-3.014c0-1.193-0.41-2.199-1.232-3.022
	c-0.827-0.824-1.83-1.233-3.022-1.233c-1.189,0-2.195,0.409-3.022,1.233c-0.819,0.823-1.229,1.829-1.229,3.022
	c0,1.189,0.41,2.195,1.229,3.014c0.728,0.74,1.614,1.122,2.636,1.201c0.911,3.71,3.865,6.768,7.782,8.255
	c-1.392,0.513-2.617,1.169-3.654,1.976c-1.134,0.887-2.04,1.937-2.72,3.153c-0.68,1.221-1.022,2.509-1.022,3.885h0.087
	c0,0.931,0.41,1.714,1.233,2.362c0.823,0.64,1.829,0.962,3.018,0.962c1.193,0,2.199-0.322,3.022-0.962
	c0.824-0.648,1.233-1.432,1.233-2.362v-3.316c0-0.931,0.402-1.718,1.197-2.358c0.795-0.648,1.782-0.962,2.975-0.962
	s2.198,0.314,3.018,0.962c0.819,0.641,1.232,1.428,1.232,2.358v7.237c-1.359-0.402-2.775-0.597-4.25-0.597
	c-1.762,0-3.42,0.263-4.979,0.792c-1.563,0.537-2.907,1.241-4.044,2.127c-1.134,0.891-2.04,1.937-2.72,3.157
	c-0.68,1.217-1.022,2.513-1.022,3.889c0,1.367,0.342,2.664,1.022,3.881c0.68,1.217,1.586,2.27,2.72,3.152
	c1.137,0.892,2.481,1.596,4.044,2.128c1.559,0.532,3.217,0.796,4.979,0.796c7.293-0.013,11.488-1.65,12.765-3.197V64.952
	C93.547,63.58,93.204,62.292,92.521,61.099z M85.032,81.625c0,0.926-0.413,1.713-1.232,2.354c-0.819,0.645-1.825,0.967-3.018,0.967
	s-2.196-0.322-3.022-0.967c-0.823-0.641-1.237-1.428-1.237-2.354V74.98c0-0.93,0.414-1.718,1.237-2.358
	c0.826-0.64,1.83-0.962,3.022-0.962s2.198,0.322,3.018,0.962s1.232,1.428,1.232,2.358V81.625z"/>
<path fill="#FFFFFF" d="M87.916,47.778c1.197,0,2.199-0.406,3.021-1.233c0.823-0.819,1.233-1.825,1.233-3.018
	c0-1.189-0.41-2.195-1.233-3.018c-0.822-0.824-1.824-1.233-3.021-1.233c-1.189,0-2.195,0.409-3.019,1.233
	c-0.822,0.823-1.232,1.829-1.232,3.018c0,1.193,0.41,2.199,1.232,3.018C85.721,47.372,86.727,47.778,87.916,47.778z"/>
<path fill="#FFFFFF" d="M126.854,85.398c0,0.926,0.413,1.713,1.232,2.357c0.827,0.645,1.829,0.967,3.022,0.967
	c1.189,0,2.194-0.322,3.018-0.967c0.824-0.645,1.237-1.432,1.237-2.357v-6.625v-19.93c0-0.926-0.413-1.713-1.237-2.354
	c-0.823-0.644-1.828-0.962-3.018-0.962c-1.193,0-2.195,0.318-3.022,0.962c-0.819,0.641-1.232,1.428-1.232,2.354V85.398z"/>
<g>
	<g>
		<path fill="#FFFFFF" d="M24.567,100.017h-1.102c0.073-0.447,0.116-1.081,0.116-1.49v-2.708c0-0.435-0.043-1.056-0.102-1.354
			c0.435,0.049,1.116,0.087,2.218,0.1v-0.646c0-0.359-0.043-0.994-0.102-1.328c0.406,0.037,0.884,0.062,1.291,0.062
			c0.203,0,0.246,0.099,0.072,0.198c-0.145,0.088-0.275,0.473-0.275,0.658v1.057c1.058-0.013,1.739-0.051,2.102-0.1
			c-0.043,0.298-0.102,0.932-0.102,1.354v1.838c0,0.521,0.043,1.181,0.102,1.665h-1.087v-0.36h-1.015v2.373l1.305-0.162
			c-0.116-0.397-0.247-0.783-0.392-1.143l0.87-0.187c0.275,0.845,0.521,1.565,0.855,2.422l-1.015,0.261
			c-0.029-0.211-0.073-0.435-0.13-0.67l-2.813,0.546c-0.942,0.174-1.754,0.386-2,0.472c-0.015-0.348-0.16-0.932-0.276-1.267
			c0.363,0.037,1.291,0.013,2.609-0.149v-2.496h-1.13V100.017z M24.567,95.371v2.77h1.13v-2.77H24.567z M27.698,95.371h-1.015v2.77
			h1.015V95.371z M35.831,98.066c-0.073,0.547-0.275,3.217-0.29,3.59c-0.043,1.428-0.275,1.776-2.653,2.111
			c-0.058-0.41-0.304-0.807-0.681-1.229c1.841,0.161,2.058,0.05,2.218-1.218c0.058-0.496,0.13-1.478,0.145-2.334h-2.522
			c-0.884,0-1.855,0.049-2.421,0.123c0.16-1.428,0.188-2.844,0.145-4.023c0.392,0.049,1,0.111,1.261,0.111
			c0.218,0,0.247,0.074,0.058,0.236c-0.13,0.111-0.203,0.633-0.333,2.732h2.174l0.392-4.186h-2.044c-0.667,0-1.479,0.024-2.16,0.074
			v-1.08c0.652,0.049,2.015,0.086,2.769,0.086c0.797,0,2.131-0.037,2.725-0.086l-0.565,5.191
			C34.743,98.154,35.425,98.116,35.831,98.066z M31.438,101.259c-0.855,0-1.493,0.037-1.971,0.075v-1.02
			c0.479,0.037,1.116,0.074,1.971,0.074c0.914,0,1.667-0.037,2.117-0.074v1.02C33.105,101.296,32.352,101.259,31.438,101.259z"/>
		<path fill="#FFFFFF" d="M43.15,99.781h-1.087c0.058-0.473,0.073-0.969,0.073-1.379v-3.043c0-0.447-0.043-0.883-0.087-1.081
			c0.435,0.024,1.087,0.037,2.174,0.037c0.043-0.856-0.015-1.913-0.087-2.124c0.42,0.074,0.913,0.112,1.305,0.1
			c0.203-0.012,0.246,0.124,0.058,0.199c-0.217,0.086-0.304,0.298-0.304,0.707v1.118c1.131,0,1.769-0.013,2.174-0.037
			c-0.043,0.211-0.072,0.646-0.072,1.081v2.248c0,1.018,0.014,1.291,0.058,1.639h-1.043v-0.521h-1.116v2.273l1.537-0.273
			c-0.087-0.273-0.188-0.547-0.333-0.82l0.899-0.223c0.275,0.646,0.521,1.316,0.768,2.037l-1.029,0.322
			c-0.029-0.223-0.072-0.435-0.116-0.633l-2.885,0.721c-0.942,0.235-1.537,0.446-2.015,0.695c-0.058-0.361-0.217-0.969-0.377-1.305
			c0.508-0.025,1.247-0.1,2.581-0.348v-2.447H43.15V99.781z M43.15,95.135v2.758h1.073v-2.758H43.15z M46.311,95.135h-1.116v2.758
			h1.116V95.135z M52.312,93.31c0.565,0.112,1.146,0.198,1.508,0.211c0.319,0.013,0.319,0.087,0.087,0.249
			c-0.29,0.211-0.435,0.707-0.522,1.639c-0.13,1.379-0.87,3.677-2,5.205c0.812,0.658,2.073,1.217,3.465,1.564
			c-0.493,0.373-0.71,0.658-0.986,1.18c-1.392-0.633-2.334-1.279-3.16-1.962c-0.812,0.782-1.87,1.688-3.174,2.435
			c-0.348-0.373-0.595-0.572-1.102-0.883c1.45-0.533,2.667-1.365,3.566-2.234c-1.232-1.379-1.797-3.305-2.102-6.335
			c0.377,0.024,0.783,0.013,1.116-0.038c0.102,1.988,0.725,4.248,1.652,5.54C52.283,97.793,52.37,95.992,52.312,93.31z
			 M50.181,95.334c-0.217-1.168-0.449-2.012-0.768-2.807l1.131-0.299c0.333,1.006,0.551,1.839,0.797,2.857L50.181,95.334z"/>
		<path fill="#FFFFFF" d="M61.24,95.123V93.98c1.058,0.063,2.261,0.1,3.856,0.124c0.304-0.646,0.493-1.292,0.58-1.938
			c0.435,0.124,1.218,0.272,1.551,0.298c0.304,0.025,0.377,0.125,0.015,0.348c-0.102,0.063-0.218,0.211-0.827,1.292
			c2.726,0.013,4.9-0.024,6.465-0.124v1.143c-1.652-0.1-4.117-0.137-6.973-0.125c-0.493,0.883-1.232,1.814-2.16,2.758v3.466
			c0,0.559,0.015,1.093,0.072,2.198h-1.333c0.058-1.105,0.087-1.64,0.087-2.198v-2.36c-0.464,0.397-0.957,0.795-1.464,1.18
			c-0.406-0.422-0.725-0.621-1.073-0.758c0.913-0.496,1.754-1.105,2.508-1.775c-0.029-0.422-0.073-0.745-0.13-0.906
			c0.391,0.062,0.681,0.074,0.971,0.062c0.478-0.521,0.898-1.081,1.232-1.651C63.255,95.036,62.183,95.061,61.24,95.123z
			 M72.156,97.893v1.118c-0.797-0.075-1.74-0.112-3.16-0.112v3.031c1.71-0.013,2.87-0.05,3.856-0.125v1.143
			c-1.087-0.086-2.363-0.123-4.363-0.123c-1.986,0-3.276,0.037-4.349,0.123v-1.143c0.971,0.075,2.073,0.112,3.682,0.125v-3.031
			c-1.29,0.025-2.16,0.074-2.914,0.149v-1.155c0.783,0.074,1.624,0.111,2.914,0.125c0-1.242-0.043-2.013-0.13-2.348
			c0.42,0.074,0.928,0.123,1.435,0.123c0.232,0,0.261,0.075,0.058,0.199c-0.116,0.074-0.188,0.286-0.188,0.436v1.59
			C70.416,98.004,71.358,97.967,72.156,97.893z"/>
		<path fill="#FFFFFF" d="M80.2,97.197c-0.479,0.074-0.898,0.174-1.159,0.236c0-0.236-0.174-0.733-0.363-0.969
			c0.624-0.199,1.943-2.074,2.683-4.137c0.42,0.224,1.028,0.41,1.318,0.46c0.262,0.05,0.247,0.235,0.044,0.311
			c-0.435,0.161-0.754,0.497-2.595,3.315l1.928-0.248c0.493-0.758,0.638-1.068,0.798-1.553c0.551,0.286,0.928,0.423,1.318,0.51
			c0.232,0.05,0.232,0.236-0.058,0.298c-0.102,0.024-0.203,0.075-0.449,0.349c0.681,0,1.072-0.038,2.029-0.199
			c-0.029-0.981-0.058-2.087-0.087-3.18c0.42,0.087,1,0.124,1.392,0.1c0.217-0.013,0.318,0.123,0.116,0.285
			c-0.073,0.063-0.232,0.422-0.247,0.621c-0.028,0.534-0.058,1.428-0.072,1.987c1.595-0.286,3.189-0.621,4.03-0.819l0.231,0.956
			c-0.913,0.099-2.624,0.385-4.232,0.671c0.043,0.496,0.087,0.956,0.159,1.391c1.652-0.311,3.378-0.621,4.262-0.832l0.232,0.957
			c-0.942,0.099-2.683,0.409-4.335,0.683c0.16,0.72,0.392,1.341,0.682,1.863c0.638-0.509,1.362-1.242,1.725-1.776
			c0.421,0.298,1.015,0.596,1.131,0.646c0.174,0.074,0.174,0.211,0.015,0.223c-0.218,0.013-0.898,0.473-1.449,1.043
			c-0.175,0.174-0.464,0.423-0.841,0.709c0.391,0.435,0.841,0.795,1.362,1.093c0.493,0.286,0.623,0.261,0.797-1.143
			c0.349,0.435,0.885,0.671,1.29,0.72c-0.681,1.926-1.028,2.125-1.956,1.702c-1.103-0.497-1.726-0.993-2.334-1.764
			c-0.942,0.621-2.116,1.316-3.291,1.813c-0.174-0.311-0.492-0.646-0.884-0.895c1.102-0.261,1.623-0.473,3.565-1.752
			c-0.391-0.633-0.695-1.391-0.913-2.272c-0.942,0.187-1.392,0.273-2.087,0.447l-0.232-0.981c0.739-0.1,1.174-0.161,2.146-0.311
			c-0.058-0.422-0.116-0.869-0.145-1.354c-0.841,0.174-1.232,0.261-1.885,0.435l-0.275-0.956c-0.435,0.496-1.188,1.453-2.739,3.453
			c1.014-0.063,2.058-0.211,2.841-0.398c-0.087,0.286-0.072,0.535-0.015,0.87l-2.668,0.385c-0.984,0.149-1.289,0.187-1.536,0.286
			c0-0.348-0.188-0.869-0.376-1.143c0.651-0.225,1.203-0.597,2.42-2.336L80.2,97.197z M83.795,101.743
			c-2.696,0.497-3.682,0.795-4.508,1.181c-0.072-0.423-0.145-0.696-0.436-1.23c0.826-0.012,2.03-0.174,4.9-0.882
			C83.665,101.072,83.708,101.47,83.795,101.743z M88.912,94.602c-0.246-0.385-0.58-0.845-1-1.268l1.131-0.484
			c0.392,0.473,0.754,0.907,1.015,1.193L88.912,94.602z"/>
	</g>
</g>
</svg>
